<svg viewBox="0 0 1024 1024" version="1.1"  p-id="1540"  width="48" height="48"><path d="M512 924.444444c-227.790222 0-412.444444-184.654222-412.444444-412.444444s184.654222-412.444444 412.444444-412.444444 412.444444 184.654222 412.444444 412.444444-184.654222 412.444444-412.444444 412.444444z m0-42.666666c204.224 0 369.777778-165.553778 369.777778-369.777778s-165.553778-369.777778-369.777778-369.777778-369.777778 165.553778-369.777778 369.777778 165.553778 369.777778 369.777778 369.777778z m0-42.666667c-180.657778 0-327.111111-146.453333-327.111111-327.111111s146.453333-327.111111 327.111111-327.111111 327.111111 146.453333 327.111111 327.111111-146.453333 327.111111-327.111111 327.111111z m0-42.666667c157.091556 0 284.444444-127.352889 284.444444-284.444444S669.091556 227.555556 512 227.555556 227.555556 354.908444 227.555556 512s127.352889 284.444444 284.444444 284.444444zM426.666667 469.333333a42.666667 42.666667 0 1 1 0-85.333333 42.666667 42.666667 0 0 1 0 85.333333z m0 170.666667a42.666667 42.666667 0 1 1 0-85.333333 42.666667 42.666667 0 0 1 0 85.333333z m170.666666-170.666667a42.666667 42.666667 0 1 1 0-85.333333 42.666667 42.666667 0 0 1 0 85.333333z m0 170.666667a42.666667 42.666667 0 1 1 0-85.333333 42.666667 42.666667 0 0 1 0 85.333333z" fill="#333333" p-id="1541"></path></svg>